<?xml version="1.0" encoding="utf-8"?>
<!-- Generator: Adobe Illustrator 27.0.0, SVG Export Plug-In . SVG Version: 6.00 Build 0)  -->
<svg version="1.1" id="Layer_1" xmlns="http://www.w3.org/2000/svg" xmlns:xlink="http://www.w3.org/1999/xlink" x="0px" y="0px"
	 viewBox="0 0 1000 1000" style="enable-background:new 0 0 1000 1000;" xml:space="preserve">
<style type="text/css">
	.st0{fill:#F45C46;}
	.st1{fill:#2CB369;}
	.st2{fill:#4F98F3;}
	.st3{fill:#FDC726;}
</style>
<g id="BHtZbJ.tif">
	<g>
		<path class="st0" d="M521.92,201.09c2.59,1.01,5.34,0.67,8.01,0.86c29.91,2.19,58.83,8.64,86.68,19.79
			c32.88,13.15,62.14,32.01,88.14,56c1.17,1.08,1.12,1.63,0.04,2.71c-27.5,27.45-54.98,54.92-82.41,82.44
			c-1.41,1.42-2.06,0.79-3.14-0.21c-21.42-19.83-46.34-33.03-74.88-39.24c-21.29-4.63-42.74-5.25-64.3-1.96
			c-64.47,9.85-118.6,56.64-140.39,118.75c-0.3,0.85-0.66,1.68-1,2.52c-9.76-7.52-19.54-15.01-29.28-22.56
			c-16.93-13.12-33.85-26.26-50.75-39.41c-6.33-4.92-12.61-9.91-18.91-14.87c0.12-0.31,0.22-0.63,0.37-0.92
			c24.39-47.64,58.88-86.3,103.68-115.57c42.56-27.81,89.28-43.57,140-47.48c2.24-0.17,4.6,0.21,6.75-0.85
			C501,201.09,511.46,201.09,521.92,201.09z"/>
		<path class="st1" d="M703.8,726.29c-8.51,8.31-17.87,15.57-27.59,22.37c-31.43,21.95-66.17,36.11-103.64,43.76
			c-16.27,3.32-32.71,5.33-49.31,6.06c-0.62,0.03-1.35-0.23-1.83,0.44c-10.46,0-20.92,0-31.39,0c-0.2-0.68-0.78-0.46-1.23-0.5
			c-3.72-0.32-7.44-0.59-11.15-0.93c-24.3-2.2-47.96-7.43-70.91-15.68c-54.62-19.63-99.78-52.42-135.64-98.03
			c-12.18-15.49-22.72-32.04-31.42-49.74c11.92-9.28,23.82-18.57,35.76-27.83c21.05-16.33,42.11-32.64,63.16-48.96
			c3.12,8.02,6.08,16.11,10.06,23.76c24.86,47.83,62.77,79.83,115.01,94.14c21.13,5.79,42.71,6.52,64.44,4.29
			c22.07-2.26,43.11-8.04,62.96-18.04c5.78-2.91,11.26-6.34,16.8-9.66c0.9,0.73,1.8,1.47,2.71,2.18
			c13.07,10.17,26.14,20.34,39.22,30.49C667.81,698.38,685.81,712.33,703.8,726.29z"/>
		<path class="st2" d="M703.8,726.29c-17.99-13.96-35.99-27.91-53.98-41.87c-13.08-10.15-26.15-20.32-39.22-30.49
			c-0.92-0.71-1.81-1.45-2.71-2.18c8.16-5.87,16.02-12.1,23.02-19.36c18.37-19.04,30.43-41.43,36.1-67.3
			c0.54-2.47-0.35-2.5-2.25-2.5c-51.56,0.04-103.12,0.03-154.68,0.02c-4.25,0-3.66,0.49-3.66-3.73
			c-0.01-35.29,0.01-70.58-0.06-105.86c0-2.22,0.49-2.89,2.83-2.89c92,0.06,183.99,0.06,275.99,0c2.11,0,2.8,0.58,3.09,2.62
			c1.68,11.57,3.01,23.17,3.72,34.85c0.63,10.46,0.71,20.92,0.35,31.36c-1.67,48.22-12.1,94.26-34.71,137.19
			c-11,20.89-24.5,40.03-40.7,57.24C712.72,717.86,708.52,722.34,703.8,726.29z"/>
		<path class="st3" d="M239.7,634.04c-11.38-22.15-19.66-45.42-25.14-69.7c-5.65-25.05-7.91-50.44-6.87-76.07
			c1.74-42.93,12.4-83.59,31.77-121.96c0.07-0.15,0.19-0.27,0.28-0.4c6.3,4.96,12.58,9.95,18.91,14.87
			c16.9,13.15,33.82,26.29,50.75,39.41c9.74,7.55,19.52,15.04,29.28,22.56c-2.63,8.89-5.14,17.8-6.72,26.97
			c-2.63,15.28-3.39,30.6-1.98,46.06c1.26,13.84,4.01,27.35,8.51,40.5c0.1,0.31,0.1,0.65,0.14,0.98
			c-21.05,16.32-42.11,32.63-63.16,48.96C263.52,615.47,251.62,624.76,239.7,634.04z"/>
	</g>
</g>
</svg>
